HIERARCHY
ROOT Hips
{
	OFFSET -0.001795 -0.223333 0.028219
	CHANNELS 6 Xposition Yposition Zposition Zrotation Yrotation Xrotation 
	JOINT LeftUpLeg
	{
		OFFSET 0.069520 -0.091406 -0.006815
		CHANNELS 3 Zrotation Yrotation Xrotation
		JOINT LeftLeg
		{
			OFFSET 0.034277 -0.375199 -0.004496
			CHANNELS 3 Zrotation Yrotation Xrotation
			JOINT LeftFoot
			{
				OFFSET -0.013596 -0.397961 -0.043693
				CHANNELS 3 Zrotation Yrotation Xrotation
				JOINT LeftToe
				{
					OFFSET 0.026358 -0.055791 0.119288
					CHANNELS 3 Zrotation Yrotation Xrotation
					End Site
					{
						OFFSET 0.000000 0.000000 0.000000
					}
				}
			}
		}
	}
	JOINT RightUpLeg
	{
		OFFSET -0.067670 -0.090522 -0.004320
		CHANNELS 3 Zrotation Yrotation Xrotation
		JOINT RightLeg
		{
			OFFSET -0.038290 -0.382569 -0.008850
			CHANNELS 3 Zrotation Yrotation Xrotation
			JOINT RightFoot
			{
				OFFSET 0.015774 -0.398415 -0.042312
				CHANNELS 3 Zrotation Yrotation Xrotation
				JOINT RightToe
				{
					OFFSET -0.025372 -0.048144 0.123348
					CHANNELS 3 Zrotation Yrotation Xrotation
					End Site
					{
						OFFSET 0.000000 0.000000 0.000000
					}
				}
			}
		}
	}
	JOINT Spine
	{
		OFFSET -0.002533 0.108963 -0.026696
		CHANNELS 3 Zrotation Yrotation Xrotation
		JOINT Spine1
		{
			OFFSET 0.005487 0.135180 0.001092
			CHANNELS 3 Zrotation Yrotation Xrotation
			JOINT Spine2
			{
				OFFSET 0.001457 0.052922 0.025425
				CHANNELS 3 Zrotation Yrotation Xrotation
				JOINT Neck
				{
					OFFSET -0.002778 0.213870 -0.042857
					CHANNELS 3 Zrotation Yrotation Xrotation
					JOINT Head
					{
						OFFSET 0.005152 0.064970 0.051349
						CHANNELS 3 Zrotation Yrotation Xrotation
						End Site
						{
							OFFSET 0.000000 0.000000 0.000000
						}
					}
				}
				JOINT LeftShoulder
				{
					OFFSET 0.078845 0.121749 -0.034090
					CHANNELS 3 Zrotation Yrotation Xrotation
					JOINT LeftArm
					{
						OFFSET 0.090977 0.030469 -0.008868
						CHANNELS 3 Zrotation Yrotation Xrotation
						JOINT LeftForeArm
						{
							OFFSET 0.259612 -0.012772 -0.027456
							CHANNELS 3 Zrotation Yrotation Xrotation
							JOINT LeftHand
							{
								OFFSET 0.249234 0.008986 -0.001171
								CHANNELS 3 Zrotation Yrotation Xrotation
								End Site
								{
									OFFSET 0.000000 0.000000 0.000000
								}
							}
						}
					}
				}
				JOINT RightShoulder
				{
					OFFSET -0.081759 0.118833 -0.038615
					CHANNELS 3 Zrotation Yrotation Xrotation
					JOINT RightArm
					{
						OFFSET -0.096012 0.032551 -0.009143
						CHANNELS 3 Zrotation Yrotation Xrotation
						JOINT RightForeArm
						{
							OFFSET -0.253742 -0.013329 -0.021401
							CHANNELS 3 Zrotation Yrotation Xrotation
							JOINT RightHand
							{
								OFFSET -0.255298 0.007772 -0.005559
								CHANNELS 3 Zrotation Yrotation Xrotation
								End Site
								{
									OFFSET 0.000000 0.000000 0.000000
								}
							}
						}
					}
				}
			}
		}
	}
}
MOTION
Frames: 16
Frame Time: 0.050000
0.000000 0.958526 0.000000 0.180928 -16.670615 1.441535 4.767956 -0.192575 -6.391218 -0.400753 0.002923 6.898673 -0.165260 1.986280 10.255451 0.000000 0.000000 0.000000 0.396708 -0.115972 1.112688 1.904212 -0.101853 0.914036 -0.089241 -4.369768 6.341807 0.000000 0.000000 0.000000 0.513076 -0.192130 4.572135 -4.908374 2.149047 -3.029455 1.803496 0.999615 8.737278 0.272958 0.045743 -14.859606 0.000000 0.000000 0.000000 -15.883203 -4.896038 2.844187 -55.244209 -4.315100 -5.035455 -9.771468 -32.247174 4.752146 0.000000 0.000000 0.000000 14.405671 5.217100 -0.384663 58.738714 0.777478 -5.774652 23.480792 35.584959 7.503357 0.000000 0.000000 0.000000 
-0.001806 0.957165 -0.004319 0.785689 -14.915608 1.407959 5.194303 -0.248155 -8.543762 -1.607130 0.276709 10.056817 -1.020983 0.570559 9.705310 0.000000 0.000000 0.000000 0.313937 -0.106487 1.040691 0.958672 -0.043169 0.695820 -0.851685 -4.821181 4.481274 0.000000 0.000000 0.000000 0.003091 -0.187307 5.364898 -5.266341 2.392637 -2.102294 1.997904 -0.138856 8.014554 -0.266426 0.411077 -16.061256 0.000000 0.000000 0.000000 -14.860724 -3.957912 2.311421 -55.358230 -4.096800 -5.022432 -12.293260 -36.221624 6.363188 0.000000 0.000000 0.000000 13.601025 5.271461 -0.281251 58.748586 1.927506 -5.180532 26.371839 39.668329 9.391036 0.000000 0.000000 0.000000 
-0.002540 0.956117 -0.009040 0.918494 -12.210287 1.262837 5.024988 -0.407904 -12.202527 -1.839083 0.404519 16.103863 -0.843950 0.618088 7.641374 0.000000 0.000000 0.000000 0.315966 -0.123505 1.203630 1.715024 -0.131082 0.037756 -2.722396 -7.943726 2.850170 0.000000 0.000000 0.000000 -0.340704 -0.220351 7.516905 -4.336112 1.934146 -2.814333 1.732294 -0.256447 8.777551 -1.930397 1.560053 -15.190917 0.000000 0.000000 0.000000 -14.420841 -4.396194 2.282160 -54.697740 -3.618803 -5.286223 -17.885841 -40.799542 9.406588 0.000000 0.000000 0.000000 12.475925 6.332343 0.642783 59.548203 2.884647 -4.933993 29.030346 46.114410 12.592506 0.000000 0.000000 0.000000 
-0.002011 0.955872 -0.012643 1.139343 -10.996795 2.371361 5.856721 -0.405686 -16.642049 -3.897609 1.148964 20.580479 -0.537568 1.478658 8.238533 0.000000 0.000000 0.000000 -0.317293 0.021531 -0.090313 2.866272 -0.200568 1.333064 -4.565971 -11.636213 1.988513 0.000000 0.000000 0.000000 -0.739996 -0.183698 7.197271 -4.793967 2.207767 -1.720888 2.284148 0.598038 7.974618 -2.572160 2.127659 -16.136149 0.000000 0.000000 0.000000 -13.472289 -3.741129 1.614160 -53.438606 -1.895677 -5.784785 -28.110576 -48.955940 16.360033 0.000000 0.000000 0.000000 10.685949 6.606069 1.205930 59.833732 3.446094 -4.626095 37.216940 52.215962 18.996275 0.000000 0.000000 0.000000 
-0.000020 0.955005 -0.013067 1.342494 -8.632682 2.860032 6.068375 -0.497285 -20.418839 -5.218084 1.672819 25.025595 2.406920 6.501158 6.208446 0.000000 0.000000 0.000000 -0.619481 0.065473 -0.444646 3.521713 -0.268740 1.991105 -5.955441 -14.639086 1.608291 0.000000 0.000000 0.000000 -0.100984 -0.270216 8.042292 -5.342329 2.429467 -2.424754 2.293357 1.555257 8.913467 -2.708449 2.444504 -16.323418 0.000000 0.000000 0.000000 -14.164792 -4.574680 1.666302 -51.477122 0.236773 -6.595395 -37.725060 -58.581124 25.591635 0.000000 0.000000 0.000000 9.776751 5.663983 1.224745 59.144473 3.918121 -4.385693 51.119119 57.594127 30.492188 0.000000 0.000000 0.000000 
0.003631 0.953555 -0.008762 2.059280 -5.273437 2.948834 5.565766 -0.790921 -22.294484 -7.957230 2.485385 27.024377 5.374962 11.677027 2.907137 0.000000 0.000000 0.000000 -0.534079 -0.002911 0.256387 3.077715 -0.245388 2.440643 -7.500786 -18.126864 1.208186 0.000000 0.000000 0.000000 -0.412715 -0.267045 8.345195 -5.066173 2.279830 -3.379368 2.126504 2.826743 10.158455 -3.013566 3.004571 -17.851133 0.000000 0.000000 0.000000 -13.839426 -3.892116 0.797869 -50.104804 2.493295 -7.393649 -59.300200 -63.217946 42.405353 0.000000 0.000000 0.000000 9.053054 4.459974 1.179344 58.300538 4.908497 -3.842268 69.082070 61.333417 47.112686 0.000000 0.000000 0.000000 
0.009236 0.951211 -0.000578 1.649754 -1.638104 3.141493 5.068732 -1.141797 -24.078023 -9.353003 2.667670 28.101533 6.702048 14.367008 3.335115 0.000000 0.000000 0.000000 -0.114837 -0.122775 1.295513 3.286722 -0.308764 1.876255 -8.216115 -19.999722 2.236736 0.000000 0.000000 0.000000 -0.190939 -0.326897 8.814088 -4.411266 2.008102 -3.713753 2.001680 2.979499 11.062970 -2.243384 2.820541 -18.835871 0.000000 0.000000 0.000000 -10.756206 -1.487610 -0.440088 -52.283968 3.860557 -8.403764 -77.330598 -63.898528 56.546555 0.000000 0.000000 0.000000 8.011818 4.006616 1.285612 59.186361 5.686308 -3.461000 81.464436 63.179721 60.152052 0.000000 0.000000 0.000000 
0.017705 0.948206 0.011929 1.058523 1.887966 2.750826 3.994483 -1.530957 -23.989680 -10.136979 2.503088 27.473674 7.691538 16.395110 4.344279 0.000000 0.000000 0.000000 0.599995 -0.235368 2.049203 2.695393 -0.245286 3.364675 -9.302279 -22.525407 3.470410 0.000000 0.000000 0.000000 -0.019931 -0.397053 9.470377 -4.622586 2.127466 -3.911528 2.806605 3.674439 11.724827 -2.361841 3.192858 -18.978653 0.000000 0.000000 0.000000 -9.920911 -0.579268 -1.069751 -52.216749 5.698023 -9.291950 -90.368173 -61.368750 64.242520 0.000000 0.000000 0.000000 5.786419 3.705020 1.408214 60.778824 6.416453 -2.922552 92.187246 65.542605 74.004426 0.000000 0.000000 0.000000 
0.029814 0.945133 0.028686 0.432112 4.313065 3.194777 2.575456 -1.809762 -22.777476 -10.105252 2.129654 25.507587 7.103606 15.642403 5.977574 0.000000 0.000000 0.000000 0.249715 -0.081637 0.733663 3.621840 -0.398067 7.572067 -9.785736 -23.758928 3.096211 0.000000 0.000000 0.000000 0.514570 -0.404885 8.200131 -5.036323 2.329450 -3.202276 3.195072 4.379497 12.229050 -2.069992 3.283025 -19.541400 0.000000 0.000000 0.000000 -7.941348 0.534191 -1.464638 -53.180112 6.486936 -10.018250 -93.546560 -59.122946 63.774835 0.000000 0.000000 0.000000 5.573262 2.281264 0.972931 60.878047 6.885232 -2.506650 95.288598 65.792877 78.613574 0.000000 0.000000 0.000000 
0.046069 0.942585 0.049118 0.126953 8.047380 3.000632 0.768083 -1.913408 -19.782086 -9.796737 1.593878 22.764532 7.715508 16.560031 4.397757 0.000000 0.000000 0.000000 -0.246651 0.047128 -0.385386 4.967311 -0.856116 12.469811 -10.800017 -25.888447 4.420347 0.000000 0.000000 0.000000 0.367261 -0.410523 8.169948 -4.897686 2.286215 -3.697650 3.381133 4.274751 13.181170 -2.511622 3.803161 -20.030142 0.000000 0.000000 0.000000 -7.592832 0.864128 -1.719136 -53.720828 6.504441 -10.359957 -99.635419 -58.403717 67.697165 0.000000 0.000000 0.000000 5.852422 1.739907 0.915048 61.136097 5.992457 -2.906343 98.290996 65.301824 82.524682 0.000000 0.000000 0.000000 
0.065067 0.940834 0.071207 0.234950 12.589305 2.004236 -1.571149 -1.878200 -16.501212 -7.928687 0.702742 22.106470 7.223053 15.298421 2.779194 0.000000 0.000000 0.000000 -2.499672 0.393832 -4.896447 8.125687 -3.106722 25.921133 -11.362750 -26.238113 7.342055 0.000000 0.000000 0.000000 -0.400482 -0.389368 8.554587 -3.918092 1.895717 -3.068810 2.946483 3.970257 13.127568 -2.604209 4.108153 -19.850641 0.000000 0.000000 0.000000 -7.164195 0.854137 -1.835718 -53.312471 6.499724 -10.380844 -101.759013 -58.348922 68.399301 0.000000 0.000000 0.000000 5.461103 0.400027 0.469098 60.393087 5.607732 -2.852230 99.498803 65.179906 84.916421 0.000000 0.000000 0.000000 
0.083442 0.937980 0.093827 -0.751749 15.826207 0.136163 -1.739078 -1.476231 -13.298090 -7.568215 0.291609 23.795684 6.516488 12.636830 -1.159169 0.000000 0.000000 0.000000 -4.300039 0.558055 -12.156211 8.995135 -6.788805 43.334687 -9.589670 -21.817499 10.664235 0.000000 0.000000 0.000000 -0.717995 -0.536029 10.885381 -3.324614 1.683158 -3.372789 3.728569 3.146084 13.621904 -2.843404 4.390629 -20.403350 0.000000 0.000000 0.000000 -8.138577 0.116214 -1.833670 -53.410395 6.180013 -10.293606 -105.931564 -59.462235 73.408021 0.000000 0.000000 0.000000 4.217413 0.265385 0.377058 60.635338 4.269888 -3.435869 100.762161 65.394252 87.070772 0.000000 0.000000 0.000000 
0.099961 0.935456 0.117880 -1.463889 19.456440 -1.266282 -3.274841 -1.223439 -10.650635 -5.458742 -0.621575 24.502017 5.231353 8.880067 -3.172674 0.000000 0.000000 0.000000 -4.463998 0.485088 -18.049755 6.062602 -7.946185 52.977469 -5.994006 -14.805798 7.160088 0.000000 0.000000 0.000000 -0.388908 -0.730853 12.402866 -3.067995 1.552407 -2.234907 3.384640 0.200986 12.638319 -4.380534 5.115647 -20.958915 0.000000 0.000000 0.000000 -8.418980 1.215376 -2.200908 -52.293607 5.191617 -9.512636 -109.086467 -60.102559 77.959911 0.000000 0.000000 0.000000 3.815528 -0.006714 0.175057 60.679775 2.829161 -4.209922 98.358771 64.673258 82.847554 0.000000 0.000000 0.000000 
0.116405 0.937528 0.145013 -2.491954 22.875767 -2.455269 -3.683045 -0.709384 -6.956398 -2.974471 -1.395402 23.228537 3.340657 4.929235 -2.665892 0.000000 0.000000 0.000000 -2.894671 0.610462 -21.379103 3.626546 -7.074047 51.851984 -4.452929 -11.136154 3.163769 0.000000 0.000000 0.000000 -0.083894 -0.967883 13.971800 -2.143130 1.231743 -3.223998 2.948571 -2.291364 13.231669 -4.661766 5.275888 -22.853131 0.000000 0.000000 0.000000 -7.959451 0.190705 -1.630150 -52.130965 4.132367 -9.112589 -113.382978 -62.539530 85.785777 0.000000 0.000000 0.000000 4.637853 -1.021089 -0.224377 59.533689 1.005693 -5.311991 93.355170 64.629362 77.468436 0.000000 0.000000 0.000000 
0.133422 0.948574 0.174693 -3.768735 26.147579 -2.691748 -3.272480 -0.299989 -3.973534 -0.238851 -1.910428 20.608090 -0.437720 0.130049 1.433656 0.000000 0.000000 0.000000 -0.845139 0.863851 -23.259466 2.908293 -5.102045 41.018717 -3.166038 -7.964503 4.217773 0.000000 0.000000 0.000000 0.557595 -1.121411 14.083558 -1.446243 1.015041 -4.079314 2.565654 -6.060690 13.562827 -5.664500 5.612538 -23.950587 0.000000 0.000000 0.000000 -7.959338 1.247828 -1.871944 -53.284062 2.892702 -8.851956 -115.367848 -62.772262 89.422246 0.000000 0.000000 0.000000 3.442657 -1.773633 -0.626136 60.789290 -1.156240 -6.612337 87.500054 64.173741 70.484810 0.000000 0.000000 0.000000 
0.151561 0.963712 0.206555 -4.142569 27.323954 -2.154733 -3.209515 0.015256 -1.114186 1.141915 -1.645953 16.426078 -4.111978 -1.911423 7.545571 0.000000 0.000000 0.000000 1.523293 1.330984 -24.354845 0.073548 -1.418475 26.508386 -0.934297 -3.198388 9.412469 0.000000 0.000000 0.000000 0.995637 -1.098909 13.288067 -1.410033 1.036470 -4.506701 2.497319 -8.156672 14.224637 -5.098818 5.161046 -23.757681 0.000000 0.000000 0.000000 -6.903830 2.352531 -1.992108 -54.737774 3.246992 -9.414752 -119.253294 -61.118076 92.962037 0.000000 0.000000 0.000000 3.244789 -2.492940 -0.949231 60.796694 -3.699759 -8.084168 87.729132 63.283087 69.204748 0.000000 0.000000 0.000000 
